<?xml version="1.0" encoding="UTF-8"?>
<svg version="1.1" xmlns="http://www.w3.org/2000/svg" width="600" height="600">
<path d="M0 0 C1.28261719 -0.00128906 2.56523437 -0.00257812 3.88671875 -0.00390625 C4.55944824 -0.00181152 5.23217773 0.0002832 5.92529297 0.00244141 C7.96199118 0.00775411 9.99846527 0.00251553 12.03515625 -0.00390625 C13.96681641 -0.00197266 13.96681641 -0.00197266 15.9375 0 C17.11989258 0.00112793 18.30228516 0.00225586 19.52050781 0.00341797 C22.39391853 0.11910527 24.93973904 0.49562695 27.734375 1.1328125 C30.26463792 1.41351963 32.79576634 1.63271684 35.33203125 1.8515625 C37.54872685 2.11107808 39.58104381 2.56281307 41.734375 3.1328125 C42.62125 3.2565625 43.508125 3.3803125 44.421875 3.5078125 C47.78598428 4.1425501 50.81963351 5.08375577 54.04296875 6.21484375 C55.93721873 6.86092321 57.84843673 7.45828485 59.76953125 8.01953125 C80.65192604 14.35252358 99.50302105 24.86912387 116.734375 38.1328125 C117.34039551 38.59913086 117.94641602 39.06544922 118.57080078 39.54589844 C125.42490584 44.88066015 131.49306378 50.67291827 137.296875 57.1328125 C138.41255859 58.3703125 138.41255859 58.3703125 139.55078125 59.6328125 C145.734375 66.71241894 145.734375 66.71241894 145.734375 69.1328125 C146.394375 69.1328125 147.054375 69.1328125 147.734375 69.1328125 C171.59169536 99.21584793 182.92505626 137.81177444 183.046875 175.7578125 C183.04949341 176.53637604 183.05211182 177.31493958 183.05480957 178.11709595 C183.05950346 191.17062988 181.87673437 203.42892843 178.734375 216.1328125 C178.34875459 217.76167053 177.96333536 219.3905762 177.578125 221.01953125 C176.68187033 224.73883063 175.72933479 228.43875968 174.734375 232.1328125 C174.074375 232.1328125 173.414375 232.1328125 172.734375 232.1328125 C172.5075 233.3496875 172.280625 234.5665625 172.046875 235.8203125 C169.34434372 247.83686245 163.61137384 259.00233112 158.234375 270.0078125 C157.88433411 270.72691803 157.53429321 271.44602356 157.17364502 272.18692017 C144.18644645 298.81130258 128.8571272 323.96682659 111.734375 348.1328125 C111.23083496 348.84356934 110.72729492 349.55432617 110.20849609 350.28662109 C99.82053339 364.89878765 89.04227131 379.21855897 77.734375 393.1328125 C76.71479236 394.39058335 75.69526602 395.64839983 74.67578125 396.90625 C71.87287363 400.36219859 69.06482264 403.81392804 66.25488281 407.26416016 C64.94112768 408.8787205 63.6304329 410.49577014 62.3203125 412.11328125 C54.02996822 422.31794139 45.44205548 432.28249522 36.734375 442.1328125 C35.95835937 443.02484375 35.18234375 443.916875 34.3828125 444.8359375 C33.16464844 446.22039062 33.16464844 446.22039062 31.921875 447.6328125 C31.17292969 448.48875 30.42398438 449.3446875 29.65234375 450.2265625 C27.734375 452.1328125 27.734375 452.1328125 25.734375 452.1328125 C24.5517031 413.4112586 35.50453837 375.62755551 59.734375 345.1328125 C60.83265625 343.72708984 60.83265625 343.72708984 61.953125 342.29296875 C67.09043204 335.84420128 72.50608192 329.56049323 78.734375 324.1328125 C79.394375 324.1328125 80.054375 324.1328125 80.734375 324.1328125 C80.734375 323.4728125 80.734375 322.8128125 80.734375 322.1328125 C85.20496324 318.1328125 85.20496324 318.1328125 87.734375 318.1328125 C87.734375 317.4728125 87.734375 316.8128125 87.734375 316.1328125 C89.69585374 314.74343173 91.69604076 313.4067714 93.734375 312.1328125 C73.58348933 317.81169846 57.77097915 327.40149343 41.42651367 340.28588867 C28.99189641 350.08641623 16.7835563 355.02140678 0.734375 353.1328125 C-8.21301746 350.92309264 -15.77963972 346.37407623 -23.265625 341.1328125 C-24.81443359 340.06546875 -24.81443359 340.06546875 -26.39453125 338.9765625 C-32.10467061 334.95102364 -32.10467061 334.95102364 -34.265625 333.1328125 C-34.265625 332.4728125 -34.265625 331.8128125 -34.265625 331.1328125 C-34.79542969 331.04257812 -35.32523438 330.95234375 -35.87109375 330.859375 C-39.0981402 329.88020593 -41.68368268 328.23713329 -44.578125 326.5078125 C-49.66658369 323.53312523 -54.80980093 320.77415076 -60.140625 318.2578125 C-61.31367188 317.70351563 -62.48671875 317.14921875 -63.6953125 316.578125 C-67.54502938 315.0197057 -71.2208677 314.04843888 -75.265625 313.1328125 C-75.265625 313.7928125 -75.265625 314.4528125 -75.265625 315.1328125 C-74.69328125 315.41125 -74.1209375 315.6896875 -73.53125 315.9765625 C-71.29944934 317.11555042 -69.15691626 318.33217633 -67.015625 319.6328125 C-66.30921875 320.055625 -65.6028125 320.4784375 -64.875 320.9140625 C-64.34390625 321.31625 -63.8128125 321.7184375 -63.265625 322.1328125 C-63.265625 322.7928125 -63.265625 323.4528125 -63.265625 324.1328125 C-62.68941406 324.37515625 -62.11320312 324.6175 -61.51953125 324.8671875 C-40.02686487 336.93585978 -22.22610903 375.0414352 -15.57421875 397.46337891 C-10.81812476 414.64986426 -7.22618278 433.23130754 -8.265625 451.1328125 C-11.265625 451.1328125 -11.265625 451.1328125 -13.2109375 449.55078125 C-18.09106131 444.55696279 -22.59477575 439.39233557 -26.95703125 433.94140625 C-29.26185725 431.13739627 -31.66978526 428.47851449 -34.140625 425.8203125 C-38.36327356 421.23274369 -42.21733524 416.45895192 -46.0234375 411.52929688 C-49.2711792 407.34261309 -52.65623926 403.31126906 -56.140625 399.3203125 C-62.35921005 392.16995249 -68.07159799 384.66998817 -73.77099609 377.10351562 C-75.10434453 375.34546457 -76.45346504 373.60233105 -77.81640625 371.8671875 C-97.86653159 346.27128282 -115.58956378 318.50617403 -131.22900391 290.01367188 C-132.21253017 288.22914848 -133.21321608 286.45411407 -134.21484375 284.6796875 C-161.37417737 235.53947332 -174.86024158 180.75072343 -159.640625 125.67578125 C-154.9393474 109.67464714 -147.32294422 94.1151992 -138.265625 80.1328125 C-137.52119141 78.97652344 -137.52119141 78.97652344 -136.76171875 77.796875 C-126.45790786 62.45288673 -112.62706217 46.53697314 -97.265625 36.1328125 C-96.605625 36.1328125 -95.945625 36.1328125 -95.265625 36.1328125 C-95.265625 35.4728125 -95.265625 34.8128125 -95.265625 34.1328125 C-84.82559005 26.03833606 -64.77208355 12.1328125 -51.265625 12.1328125 C-51.265625 11.4728125 -51.265625 10.8128125 -51.265625 10.1328125 C-48.59895833 9.46614583 -45.93229167 8.79947917 -43.265625 8.1328125 C-42.605625 7.9575 -41.945625 7.7821875 -41.265625 7.6015625 C-37.96607921 6.82823145 -34.62983705 6.52530391 -31.265625 6.1328125 C-31.265625 5.4728125 -31.265625 4.8128125 -31.265625 4.1328125 C-24.640625 3.0078125 -24.640625 3.0078125 -21.265625 4.1328125 C-21.265625 3.4728125 -21.265625 2.8128125 -21.265625 2.1328125 C-20.0590625 2.16375 -20.0590625 2.16375 -18.828125 2.1953125 C-16.33207615 2.42914871 -16.33207615 2.42914871 -15.265625 1.1328125 C-12.59895833 1.1328125 -9.93229167 1.1328125 -7.265625 1.1328125 C-5.42568407 -0.70712843 -2.46467792 0.00236016 0 0 Z M-50.265625 94.1328125 C-51.66941406 95.19822266 -51.66941406 95.19822266 -53.1015625 96.28515625 C-56.77136753 99.10514971 -56.77136753 99.10514971 -60.265625 102.1328125 C-60.265625 102.7928125 -60.265625 103.4528125 -60.265625 104.1328125 C-61.255625 104.4628125 -62.245625 104.7928125 -63.265625 105.1328125 C-63.265625 105.7928125 -63.265625 106.4528125 -63.265625 107.1328125 C-63.925625 107.1328125 -64.585625 107.1328125 -65.265625 107.1328125 C-83.50863602 127.95564326 -89.92419638 153.08722825 -88.49316406 180.33984375 C-86.62692943 203.24727319 -74.64771429 224.98710379 -57.828125 240.3828125 C-38.43180241 256.80792561 -16.76051717 265.60713498 8.796875 265.3203125 C9.92287109 265.31966797 11.04886719 265.31902344 12.20898438 265.31835938 C17.64257363 265.5436155 17.64257363 265.5436155 22.734375 264.1328125 C24.10646115 263.9790933 25.48238612 263.85856778 26.859375 263.7578125 C30.85493341 263.35441478 34.15260688 262.39809937 37.8515625 260.875 C39.734375 260.1328125 39.734375 260.1328125 42.984375 259.3203125 C51.34455131 256.67292333 58.77913484 252.30775001 65.984375 247.3828125 C66.55752441 246.99407959 67.13067383 246.60534668 67.72119141 246.20483398 C69.0992959 245.23584765 70.42300741 244.19036701 71.734375 243.1328125 C71.734375 242.4728125 71.734375 241.8128125 71.734375 241.1328125 C72.31832031 240.87113281 72.90226563 240.60945312 73.50390625 240.33984375 C88.36301324 232.29875083 96.63615309 212.02612898 101.62109375 196.94140625 C109.06089432 171.48945691 105.22385035 145.25662066 92.609375 122.1953125 C78.58036649 99.01563321 56.47807905 84.38004015 30.54638672 77.55712891 C3.31569638 71.06070636 -28.14630165 76.87685829 -50.265625 94.1328125 Z M-6.0546875 299.07421875 C-11.30146478 305.82540374 -12.10746141 311.64885079 -11.265625 320.1328125 C-10.2151652 322.88510892 -9.01461442 324.72795204 -7.265625 327.1328125 C-6.605625 327.1328125 -5.945625 327.1328125 -5.265625 327.1328125 C-5.059375 327.7309375 -4.853125 328.3290625 -4.640625 328.9453125 C-2.56980683 332.23979595 -0.98715977 332.87127529 2.734375 334.1328125 C9.46341799 334.85909412 16.11138819 335.07348123 22.08203125 331.5390625 C26.79342735 327.52936369 29.35200375 322.11094414 29.9375 316.01953125 C30.08296013 309.19502662 28.77174053 304.46832908 24.171875 299.1953125 C22.01208123 296.91749842 22.01208123 296.91749842 19.734375 297.1328125 C19.734375 296.4728125 19.734375 295.8128125 19.734375 295.1328125 C10.91927618 291.16204727 0.71773717 291.72510289 -6.0546875 299.07421875 Z " fill="#8E245F" transform="translate(290.265625,14.8671875)"/>
<path d="M0 0 C0 0.99 0 1.98 0 3 C-1.11375 3.47308594 -2.2275 3.94617188 -3.375 4.43359375 C-18.49527092 10.9451702 -32.72344956 17.82673432 -45 29 C-45.72703125 29.64582031 -46.4540625 30.29164063 -47.203125 30.95703125 C-56.62059477 39.78141609 -64.34688361 52.39597698 -65.23828125 65.50390625 C-65.69613848 81.90978173 -59.85623416 93.53299107 -48.734375 105.421875 C-43.35573257 110.41356474 -37.31923385 114.30768061 -31 118 C-29.94683594 118.62648438 -28.89367187 119.25296875 -27.80859375 119.8984375 C-2.63065475 134.37332073 26.52027069 140.87025857 55 145 C55.79744629 145.11859375 56.59489258 145.2371875 57.41650391 145.359375 C70.28544865 147.1780776 83.21626402 147.203871 96.1875 147.25 C97.0424707 147.25535767 97.89744141 147.26071533 98.77832031 147.26623535 C110.96216791 147.36232334 110.96216791 147.36232334 122.9621582 145.47216797 C126.11679746 144.74123802 129.27364121 144.60524211 132.5 144.4375 C136.91198096 144.33870715 136.91198096 144.33870715 141 143 C142.35007394 142.82018043 143.70556104 142.67976633 145.0625 142.5625 C149.08286201 142.15463719 152.92993903 141.43142186 156.859375 140.5 C158.34599101 140.15276122 159.84037737 139.83783576 161.33935547 139.54858398 C189.04775935 133.83553723 226.22175924 120.40471383 243 96 C250.31693286 83.07048008 253.58640371 71.25296366 249.5 56.4375 C245.28279152 44.31671199 237.48146001 31.99187744 226.19921875 25.3515625 C225.47347656 24.90554688 224.74773437 24.45953125 224 24 C224 23.34 224 22.68 224 22 C223.29101562 21.74347656 222.58203125 21.48695313 221.8515625 21.22265625 C218.76996244 19.90136746 216.18191338 18.27051072 213.375 16.4375 C206.94477722 12.31927822 200.1668081 9.13188773 193.18505859 6.05834961 C192.39695801 5.70264893 191.60885742 5.34694824 190.796875 4.98046875 C189.73484863 4.51483521 189.73484863 4.51483521 188.65136719 4.03979492 C187 3 187 3 186 0 C186.64066406 0.13277344 187.28132813 0.26554687 187.94140625 0.40234375 C192.94983993 1.42493006 197.93111794 2.33884147 203 3 C203 3.66 203 4.32 203 5 C203.61746094 5.17015625 204.23492187 5.3403125 204.87109375 5.515625 C210.12368333 7.01864911 215.0579964 8.7878095 220.015625 11.08203125 C222.31050549 12.14363935 224.64230313 13.08734315 227 14 C227 14.66 227 15.32 227 16 C228.30130859 16.38091797 228.30130859 16.38091797 229.62890625 16.76953125 C245.55659426 22.58322965 259.88436743 38.10178859 267.55078125 52.8359375 C274.40067654 67.79123448 274.31961819 81.49139526 269 97 C258.19399392 123.1984842 230.01870319 139.48420698 205.04248047 150.04931641 C170.21484508 164.27797233 132.91973212 170.60042137 95.41601562 170.39111328 C92.0008962 170.37500423 88.58695957 170.39109668 85.171875 170.41015625 C65.79521327 170.42881762 46.56113593 168.74522806 27.5625 164.8125 C26.55719238 164.6074585 25.55188477 164.40241699 24.51611328 164.19116211 C-4.80892193 157.92340586 -33.17155566 147.46982806 -57 129 C-57.56203125 128.57493164 -58.1240625 128.14986328 -58.703125 127.71191406 C-71.49971434 117.96038468 -83.04878768 104.2989005 -86.625 88.18359375 C-88.73373247 70.28133374 -86.21316326 56.80824485 -74.87109375 42.29296875 C-74.25363281 41.53628906 -73.63617188 40.77960938 -73 40 C-72.33677734 39.12794922 -72.33677734 39.12794922 -71.66015625 38.23828125 C-57.4304421 19.98400149 -33.46136218 9.5501382 -12.08056641 2.67626953 C-10.26545465 2.08628366 -8.46512905 1.45118917 -6.66796875 0.80859375 C-4 0 -4 0 0 0 Z " fill="#7F235C" transform="translate(206,415)"/>
<path d="M0 0 C-3.28521347 3.38602327 -6.66354232 6.40395078 -10.375 9.3125 C-17.99959909 15.5004317 -26.02068357 22.93693331 -28 33 C-28.83252606 41.78929157 -27.4098779 47.50291466 -22.11328125 54.48828125 C-6.75979325 72.7365119 20.64816787 77.00146399 43 80 C43.68610352 80.09861328 44.37220703 80.19722656 45.07910156 80.29882812 C52.03984545 81.20465636 58.99048515 81.14722891 66 81.125 C67.82917969 81.13080078 67.82917969 81.13080078 69.6953125 81.13671875 C80.62451912 81.58750844 80.62451912 81.58750844 91 79 C92.80870138 78.79620266 94.62236592 78.63499005 96.4375 78.5 C99.56308718 78.26693358 102.01424829 77.99525057 105 77 C107.33299825 76.96045766 109.66708189 76.95598268 112 77 C112.33 76.34 112.66 75.68 113 75 C114.175625 74.773125 115.35125 74.54625 116.5625 74.3125 C131.34996569 71.31248699 148.39514338 62.90728494 156.875 50.1875 C159.45671857 42.87263073 159.81944384 35.29738405 157 28 C154.27125505 23.03864555 151.07913256 18.92224284 147 15 C147 14.34 147 13.68 147 13 C146.443125 12.7525 145.88625 12.505 145.3125 12.25 C143 11 143 11 140.4375 8.9375 C138.07973981 6.83615651 138.07973981 6.83615651 135 6 C135 5.34 135 4.68 135 4 C133.02 3.01 133.02 3.01 131 2 C131.33 1.01 131.66 0.02 132 -1 C144.11710399 1.79625477 158.21867487 7.97474917 167 17 C167 17.66 167 18.32 167 19 C167.66 19 168.32 19 169 19 C176.90329675 27.23422297 181.46305528 37.04651645 181.2734375 48.48046875 C180.08173436 59.46116196 173.73925252 69.13189813 165.4375 76.125 C128.04541093 104.07066657 75.96197665 108.08468094 31.16796875 101.9765625 C4.46818783 97.95473366 -25.49212163 89.59406393 -43.5 68.04296875 C-45.81938526 64.88401435 -47.48689193 61.60408655 -49 58 C-49.4125 57.0925 -49.825 56.185 -50.25 55.25 C-52.6008405 45.06302449 -50.9036028 36.73757021 -45.6875 27.9375 C-38.69684638 17.34810753 -14.16670503 -4.72223501 0 0 Z " fill="#86235C" transform="translate(234,437)"/>
<path d="M0 0 C0 0.99 0 1.98 0 3 C-1.11375 3.47308594 -2.2275 3.94617188 -3.375 4.43359375 C-18.49527092 10.9451702 -32.72344956 17.82673432 -45 29 C-45.72703125 29.64582031 -46.4540625 30.29164063 -47.203125 30.95703125 C-56.62059477 39.78141609 -64.34688361 52.39597698 -65.23828125 65.50390625 C-65.69613848 81.90978173 -59.85623416 93.53299107 -48.734375 105.421875 C-43.35573257 110.41356474 -37.31923385 114.30768061 -31 118 C-29.94683594 118.62648438 -28.89367187 119.25296875 -27.80859375 119.8984375 C-2.63065475 134.37332073 26.52027069 140.87025857 55 145 C55.79744629 145.11859375 56.59489258 145.2371875 57.41650391 145.359375 C70.31265607 147.18192269 83.25240074 147.17852128 96.25 147.1875 C97.10924072 147.18858765 97.96848145 147.18967529 98.85375977 147.1907959 C101.34530117 147.19043871 103.83662143 147.18122009 106.328125 147.16796875 C107.0681073 147.16675522 107.8080896 147.16554169 108.57049561 147.16429138 C113.77359245 147.1184768 118.83556714 146.63870515 124 146 C124 146.33 124 146.66 124 147 C126.64 147.33 129.28 147.66 132 148 C132 148.33 132 148.66 132 149 C126.65890097 150.06323589 121.55508351 150.06384045 116.12695312 149.9609375 C114.41804145 149.9404919 112.70870148 149.96628949 111 150 C110.67 150.33 110.34 150.66 110 151 C107.56730754 151.11396363 105.16416116 151.16386006 102.73046875 151.16796875 C101.98696671 151.17220352 101.24346466 151.17643829 100.47743225 151.18080139 C98.04739855 151.19075971 95.61755066 151.19070948 93.1875 151.1875 C91.94909363 151.18659363 91.94909363 151.18659363 90.68566895 151.18566895 C78.34073742 151.16100435 66.22918812 150.80483552 54 149 C53.10055664 148.87641113 52.20111328 148.75282227 51.27441406 148.62548828 C35.93836999 146.48900798 21.20665608 142.90103463 6.34643555 138.57910156 C3.91737227 137.88019451 3.91737227 137.88019451 1 138 C1 137.34 1 136.68 1 136 C0.35675781 135.9071875 -0.28648437 135.814375 -0.94921875 135.71875 C-24.64209945 130.13681652 -49.39488251 114.22079276 -63 94 C-65.67864163 89.48191142 -67.61995845 85.32058173 -68 80 C-67.67 79.34 -67.34 78.68 -67 78 C-67.66 78 -68.32 78 -69 78 C-70.84870018 67.09266896 -69.0011579 57.58178683 -64.6875 47.5 C-64.40390625 46.82960693 -64.1203125 46.15921387 -63.828125 45.46850586 C-61.86586693 41.14336203 -59.58462289 38.21379984 -56 35 C-53.64975486 32.81762951 -53.05277207 32.15831622 -52 29 C-50.34151823 27.98648336 -48.67334039 26.98879205 -47 26 C-43.53797047 22.85296606 -43.53797047 22.85296606 -41 19 C-48.56838025 23.0995393 -54.98003444 27.82953531 -61 34 C-62.32896109 35.13016158 -63.66267852 36.25474376 -65 37.375 C-69.81588644 41.55362359 -73.45629503 45.70266386 -75 52 C-75.99458547 53.76458713 -76.99106224 55.52838177 -78.01953125 57.2734375 C-79.25443247 59.44804442 -80.15555134 61.64760729 -81 64 C-81.556875 65.2684375 -81.556875 65.2684375 -82.125 66.5625 C-83.62676062 72.46227387 -83.93841857 79.1847443 -82 85 C-81.896875 86.03125 -81.79375 87.0625 -81.6875 88.125 C-79.28852534 101.64649353 -69.76812088 114.72196509 -58.73046875 122.625 C-58.15941406 123.07875 -57.58835938 123.5325 -57 124 C-57 124.66 -57 125.32 -57 126 C-56.30777344 126.24363281 -55.61554688 126.48726562 -54.90234375 126.73828125 C-51.5260418 128.20604105 -48.6025902 130.14095644 -45.5625 132.1875 C-30.69342459 141.88497602 -14.56648481 147.82447188 2 154 C1.34 154.33 0.68 154.66 0 155 C0 155.66 0 156.32 0 157 C-20.93839492 152.03746981 -40.06093815 142.1297518 -57 129 C-57.56203125 128.57493164 -58.1240625 128.14986328 -58.703125 127.71191406 C-71.49971434 117.96038468 -83.04878768 104.2989005 -86.625 88.18359375 C-88.73373247 70.28133374 -86.21316326 56.80824485 -74.87109375 42.29296875 C-74.25363281 41.53628906 -73.63617188 40.77960938 -73 40 C-72.33677734 39.12794922 -72.33677734 39.12794922 -71.66015625 38.23828125 C-57.4304421 19.98400149 -33.46136218 9.5501382 -12.08056641 2.67626953 C-10.26545465 2.08628366 -8.46512905 1.45118917 -6.66796875 0.80859375 C-4 0 -4 0 0 0 Z M143 146 C139.36576791 148.32590854 136.22911669 148.16265833 132 148 C132 147.67 132 147.34 132 147 C135.72430357 146.30710631 139.21083746 145.88855404 143 146 Z " fill="#42164C" transform="translate(206,415)"/>
<path d="M0 0 C1.09882352 3.29647055 0.96025087 3.8348792 -0.14453125 6.94921875 C-0.40943359 7.71556641 -0.67433594 8.48191406 -0.94726562 9.27148438 C-1.23279297 10.06876953 -1.51832031 10.86605469 -1.8125 11.6875 C-4.49597623 19.30857248 -7.01598481 26.68454003 -7.5625 34.8125 C-7.77162181 37.83836458 -8.03470956 40.10412867 -9 43 C-9.08630926 44.45781722 -9.11770981 45.91927474 -9.11352539 47.37963867 C-9.11344986 48.26032516 -9.11337433 49.14101166 -9.11329651 50.04838562 C-9.10813522 50.99534805 -9.10297394 51.94231049 -9.09765625 52.91796875 C-9.0962413 53.89034988 -9.09482635 54.86273102 -9.09336853 55.86457825 C-9.08776817 58.97225004 -9.07521562 62.07984996 -9.0625 65.1875 C-9.05748505 67.29361875 -9.05292213 69.39973863 -9.04882812 71.50585938 C-9.03779862 76.67060064 -9.02053375 81.83528813 -9 87 C-8.34 87 -7.68 87 -7 87 C-7.33 88.98 -7.66 90.96 -8 93 C-7.34 93 -6.68 93 -6 93 C-6.061875 93.928125 -6.12375 94.85625 -6.1875 95.8125 C-6.21312032 102.07666708 -3.96170153 108.11489541 -2 114 C-2 115.32 -2 116.64 -2 118 C-1.34 118.33 -0.68 118.66 0 119 C0.60546875 120.65234375 0.60546875 120.65234375 1.1875 122.9375 C2.67311907 128.21374503 4.56976416 133.27460005 6.5625 138.375 C6.86760498 139.1599585 7.17270996 139.94491699 7.48706055 140.75366211 C8.86313186 144.25580692 10.30020848 147.64171222 12 151 C12.83847986 152.77553333 13.67270262 154.55307998 14.50390625 156.33203125 C19.55059873 167.05334187 24.61033981 177.60015907 30.91015625 187.64453125 C33.10570509 191.16972088 35.1548356 194.75486151 37.1875 198.375 C40.23177613 203.75425663 43.50123093 208.90685515 47 214 C48.23082776 215.85306442 49.45984986 217.70732889 50.6875 219.5625 C53.07385396 223.15361518 55.49094689 226.71705328 57.95703125 230.25390625 C58.71270386 231.34046509 58.71270386 231.34046509 59.48364258 232.44897461 C60.4833545 233.88359582 61.48701493 235.31547471 62.49487305 236.74438477 C66 241.77854817 66 241.77854817 66 244 C66.66 244 67.32 244 68 244 C71 249.75 71 249.75 71 252 C71.99 252 72.98 252 74 252 C74 252.99 74 253.98 74 255 C74.66 255 75.32 255 76 255 C77.36938477 256.56958008 77.36938477 256.56958008 78.94140625 258.76953125 C79.52132324 259.57140869 80.10124023 260.37328613 80.69873047 261.19946289 C81.31377441 262.06176514 81.92881836 262.92406738 82.5625 263.8125 C87.34613973 270.43329897 92.20280679 276.86545301 97.5234375 283.06640625 C99 285 99 285 99 287 C99.59554687 287.25007813 100.19109375 287.50015625 100.8046875 287.7578125 C103.3035965 289.17178592 104.45418472 290.55685314 106.125 292.875 C106.87136719 293.89207031 106.87136719 293.89207031 107.6328125 294.9296875 C109 297 109 297 109.9921875 299.1328125 C110.99118415 301.33265148 110.99118415 301.33265148 114 303 C114 303.66 114 304.32 114 305 C114.5775 305.23203125 115.155 305.4640625 115.75 305.703125 C118.56141978 307.32359612 120.00252857 309.19263128 122 311.75 C125.7452068 316.45647654 129.57667843 321.06578121 133.5 325.625 C134.02851563 326.24084961 134.55703125 326.85669922 135.1015625 327.49121094 C137.48251562 330.30796437 137.48251562 330.30796437 140 333 C139.67 325.74 139.34 318.48 139 311 C139.33 311 139.66 311 140 311 C140.12375 311.804375 140.2475 312.60875 140.375 313.4375 C140.58125 314.283125 140.7875 315.12875 141 316 C141.66 316.33 142.32 316.66 143 317 C144.57933493 324.1070072 144.1118508 331.7669813 144 339 C141 339 141 339 139.0546875 337.41796875 C134.17456369 332.42415029 129.67084925 327.25952307 125.30859375 321.80859375 C123.00376775 319.00458377 120.59583974 316.34570199 118.125 313.6875 C113.90235144 309.09993119 110.04828976 304.32613942 106.2421875 299.39648438 C102.9944458 295.20980059 99.60938574 291.17845656 96.125 287.1875 C89.90641495 280.03713999 84.19402701 272.53717567 78.49462891 264.97070312 C77.16128047 263.21265207 75.81215996 261.46951855 74.44921875 259.734375 C54.39909341 234.13847032 36.67606122 206.37336153 21.03662109 177.88085938 C20.05309483 176.09633598 19.05240892 174.32130157 18.05078125 172.546875 C-8.67780615 124.18602316 -22.5064792 69.96769864 -7.76953125 15.65625 C-7.51558594 14.7796875 -7.26164063 13.903125 -7 13 C-6.01 13 -5.02 13 -4 13 C-3.87882813 12.39671875 -3.75765625 11.7934375 -3.6328125 11.171875 C-3.46523437 10.37265625 -3.29765625 9.5734375 -3.125 8.75 C-2.96257812 7.96109375 -2.80015625 7.1721875 -2.6328125 6.359375 C-2.00849925 4.03168856 -1.15161458 2.10968048 0 0 Z " fill="#461956" transform="translate(138,127)"/>
<path d="M0 0 C-3.28521347 3.38602327 -6.66354232 6.40395078 -10.375 9.3125 C-18.8074515 16.15606427 -24.31455064 23.23864717 -29 33 C-29.33 33 -29.66 33 -30 33 C-30 37.95 -30 42.9 -30 48 C-32.82451788 45.17548212 -32.78237231 42.81372197 -33.0859375 38.91796875 C-32.80524487 29.38717817 -28.25311545 21.87001473 -22 15 C-21.50757813 14.45085937 -21.01515625 13.90171875 -20.5078125 13.3359375 C-19.1875 11.9375 -19.1875 11.9375 -17 10 C-16.34 10 -15.68 10 -15 10 C-15.495 9.01 -15.495 9.01 -16 8 C-24.2357045 12.67431877 -31.55199882 16.95218475 -38 24 C-38.66 24 -39.32 24 -40 24 C-40.2475 24.825 -40.495 25.65 -40.75 26.5 C-41.95776678 29.88174698 -43.41552958 32.90918389 -45.09765625 36.0703125 C-46.02772406 38.05928869 -46.6361122 39.83464298 -47 42 C-46.67 42.66 -46.34 43.32 -46 44 C-46.37125 45.423125 -46.37125 45.423125 -46.75 46.875 C-47.71859168 52.62601307 -44.5629131 58.00795224 -42 63 C-41.0026119 64.33528827 -40.00330192 65.66914951 -39 67 C-39 67.66 -39 68.32 -39 69 C-38.34 69 -37.68 69 -37 69 C-37 69.66 -37 70.32 -37 71 C-36.43152344 71.25652344 -35.86304688 71.51304687 -35.27734375 71.77734375 C-32.75944092 73.12915093 -30.78018104 74.75995137 -28.5625 76.5625 C4.26111078 100.60109644 50.21959823 100.24616466 89 100 C89 100.99 89 101.98 89 103 C47.8584705 107.39688274 0.17062034 102.80823893 -34.0625 77.4375 C-40.70261192 71.93786532 -45.6566026 65.96367018 -49 58 C-49.4125 57.0925 -49.825 56.185 -50.25 55.25 C-52.6008405 45.06302449 -50.9036028 36.73757021 -45.6875 27.9375 C-38.69684638 17.34810753 -14.16670503 -4.72223501 0 0 Z " fill="#531750" transform="translate(234,437)"/>
<path d="M0 0 C-3.11094024 3.20960812 -6.31084735 6.14986541 -9.75708008 8.99365234 C-20.90188612 18.22609147 -30.91992656 28.13007637 -38.19848633 40.73388672 C-39.06060109 42.20051644 -40.02241117 43.60767652 -41 45 C-41.99 45 -42.98 45 -44 45 C-44.10699219 45.88429688 -44.21398437 46.76859375 -44.32421875 47.6796875 C-45.01511483 51.0742636 -46.03388526 53.18015433 -47.8125 56.125 C-51.08165279 61.87149638 -53.08239196 67.69804266 -55 74 C-56.31988533 78.0462894 -57.75448514 82.01524991 -59.31640625 85.97265625 C-60.10315274 88.30592155 -60.54499725 90.57661579 -61 93 C-61.32217079 94.5394925 -61.64663955 96.07850485 -61.97265625 97.6171875 C-62.33612203 99.36975341 -62.69939789 101.12235871 -63.0625 102.875 C-63.24876953 103.74769531 -63.43503906 104.62039063 -63.62695312 105.51953125 C-64.64013523 110.45554661 -65.09155898 114.93984059 -65 120 C-65.28137614 121.98721898 -65.6110628 123.96850542 -66 125.9375 C-66.2784375 127.37416016 -66.2784375 127.37416016 -66.5625 128.83984375 C-66.706875 129.55269531 -66.85125 130.26554688 -67 131 C-59.55802882 123.79809241 -52.85487039 115.93179303 -46.34765625 107.88671875 C-44.66124229 105.81307497 -42.96408023 103.75413391 -41.24609375 101.70703125 C-40.788396 101.16159668 -40.33069824 100.61616211 -39.85913086 100.05419922 C-38.56349275 98.51302524 -37.26616461 96.97327251 -35.96875 95.43359375 C-33.99891908 93.17688964 -33.99891908 93.17688964 -33 91 C-32.34 91 -31.68 91 -31 91 C-30.7525 90.360625 -30.505 89.72125 -30.25 89.0625 C-29 87 -29 87 -26.875 86.25 C-26.25625 86.1675 -25.6375 86.085 -25 86 C-26.7221498 89.99538754 -29.37748608 93.24517584 -32.0625 96.625 C-32.79895752 97.55759644 -32.79895752 97.55759644 -33.55029297 98.5090332 C-37.14780558 103.02484905 -40.92211186 107.33692776 -44.83203125 111.5859375 C-47.08552992 114.09523872 -49.20161146 116.68241626 -51.3125 119.3125 C-54.89291949 123.72792898 -58.60682848 127.98965313 -62.4375 132.1875 C-62.95803955 132.7647583 -63.4785791 133.3420166 -64.01489258 133.93676758 C-65.30098053 135.33138974 -66.64593213 136.67128129 -68 138 C-68.66 138 -69.32 138 -70 138 C-71.1826719 99.2784461 -60.22983663 61.49474301 -36 31 C-35.2678125 30.06285156 -34.535625 29.12570312 -33.78125 28.16015625 C-28.64394296 21.71138878 -23.22829308 15.42768073 -17 10 C-16.34 10 -15.68 10 -15 10 C-15 9.34 -15 8.68 -15 8 C-10.52941176 4 -10.52941176 4 -8 4 C-8 3.34 -8 2.68 -8 2 C-3.61016949 -1.20338983 -3.61016949 -1.20338983 0 0 Z " fill="#521853" transform="translate(386,329)"/>
<path d="M0 0 C1.09882352 3.29647055 0.96025087 3.8348792 -0.14453125 6.94921875 C-0.40943359 7.71556641 -0.67433594 8.48191406 -0.94726562 9.27148438 C-1.23279297 10.06876953 -1.51832031 10.86605469 -1.8125 11.6875 C-4.49597623 19.30857248 -7.01598481 26.68454003 -7.5625 34.8125 C-7.77162181 37.83836458 -8.03470956 40.10412867 -9 43 C-9.08630926 44.45781722 -9.11770981 45.91927474 -9.11352539 47.37963867 C-9.11344986 48.26032516 -9.11337433 49.14101166 -9.11329651 50.04838562 C-9.10813522 50.99534805 -9.10297394 51.94231049 -9.09765625 52.91796875 C-9.0962413 53.89034988 -9.09482635 54.86273102 -9.09336853 55.86457825 C-9.08776817 58.97225004 -9.07521562 62.07984996 -9.0625 65.1875 C-9.05748505 67.29361875 -9.05292213 69.39973863 -9.04882812 71.50585938 C-9.03779862 76.67060064 -9.02053375 81.83528813 -9 87 C-8.34 87 -7.68 87 -7 87 C-7.33 88.98 -7.66 90.96 -8 93 C-7.34 93 -6.68 93 -6 93 C-6.061875 93.928125 -6.12375 94.85625 -6.1875 95.8125 C-6.21312032 102.07666708 -3.96170153 108.11489541 -2 114 C-2 115.32 -2 116.64 -2 118 C-1.34 118.33 -0.68 118.66 0 119 C0.74609375 120.93359375 0.74609375 120.93359375 1.4375 123.4375 C1.69015625 124.33082031 1.9428125 125.22414063 2.203125 126.14453125 C2.46609375 127.08683594 2.7290625 128.02914062 3 129 C3.55853913 130.8761837 4.12083255 132.75125529 4.6875 134.625 C5.125 136.08333333 5.5625 137.54166667 6 139 C5.01 139.99 5.01 139.99 4 141 C0.4625403 134.35043181 -2.33596878 127.75470911 -4.5625 120.5625 C-4.85987061 119.60875488 -5.15724121 118.65500977 -5.46362305 117.67236328 C-15.93586113 83.27866777 -17.04343381 47.6676903 -7 13 C-6.01 13 -5.02 13 -4 13 C-3.87882813 12.39671875 -3.75765625 11.7934375 -3.6328125 11.171875 C-3.46523437 10.37265625 -3.29765625 9.5734375 -3.125 8.75 C-2.96257812 7.96109375 -2.80015625 7.1721875 -2.6328125 6.359375 C-2.00849925 4.03168856 -1.15161458 2.10968048 0 0 Z " fill="#551F57" transform="translate(138,127)"/>
<path d="M0 0 C0 5.71535445 -5.20476242 10.00683943 -9 14 C-16.80656497 21.62780816 -25.50352543 27.63819538 -35 33 C-36.13824219 33.65613281 -37.27648437 34.31226563 -38.44921875 34.98828125 C-67.9414183 51.61372653 -107.90069318 64.41425697 -142 63 C-141.67 62.34 -141.34 61.68 -141 61 C-138.67284 60.62599214 -136.33882138 60.29235267 -134 60 C-133.505 59.505 -133.505 59.505 -133 59 C-131.4452921 58.70207721 -129.8800766 58.45868595 -128.3125 58.23828125 C-89.86663421 52.60075661 -35.70456677 41.93397618 -10 9 C-6.86162238 5.70067993 -3.60477558 2.78082688 0 0 Z " fill="#7F1D56" transform="translate(468,521)"/>
<path d="M0 0 C6.54047565 1.50934053 12.40080274 4.00746039 18.375 7 C19.06464844 7.34417969 19.75429688 7.68835938 20.46484375 8.04296875 C23.87910414 9.78684734 27.02075294 11.55548959 30 14 C29.67 15.32 29.34 16.64 29 18 C28.08476562 17.43410156 27.16953125 16.86820312 26.2265625 16.28515625 C25.02606894 15.54422663 23.82554661 14.80334364 22.625 14.0625 C22.02171875 13.68931641 21.4184375 13.31613281 20.796875 12.93164062 C17.45600369 10.86411035 17.45600369 10.86411035 14 9 C14 9.66 14 10.32 14 11 C14.66 11 15.32 11 16 11 C23.53429003 17.95174184 30.14297783 27.8100351 31.37109375 38.11328125 C31.57268305 47.825142 29.47014964 53.42026193 22.8671875 60.43359375 C19.04318304 64.18491757 14.90045293 66.69493371 10.1875 69.1875 C9.39432373 69.61603271 8.60114746 70.04456543 7.78393555 70.48608398 C0.08339343 74.59130596 -7.21371339 78.23597508 -16 79 C-15 76 -15 76 -13.31689453 75.02026367 C-12.59614746 74.73900635 -11.87540039 74.45774902 -11.1328125 74.16796875 C-10.33464111 73.84763672 -9.53646973 73.52730469 -8.71411133 73.19726562 C-7.85970459 72.86404297 -7.00529785 72.53082031 -6.125 72.1875 C6.20341947 67.16476807 17.24864767 62.53426474 24.9375 51.125 C27.42702568 43.80286566 27.8132193 36.28127348 25 29 C22.27125505 24.03864555 19.07913256 19.92224284 15 16 C15 15.34 15 14.68 15 14 C14.443125 13.7525 13.88625 13.505 13.3125 13.25 C11 12 11 12 8.4375 9.9375 C6.07973981 7.83615651 6.07973981 7.83615651 3 7 C3 6.34 3 5.68 3 5 C1.68 4.34 0.36 3.68 -1 3 C-0.67 2.01 -0.34 1.02 0 0 Z " fill="#A9255A" transform="translate(366,436)"/>
<path d="M0 0 C3.82202717 0.64458792 7.39577138 1.73341214 11.07421875 2.91674805 C44.34625502 13.4883884 77.89368941 16.5183024 112.57421875 16.203125 C113.29192947 16.19872406 114.0096402 16.19432312 114.74909973 16.18978882 C119.87965705 16.11955895 124.91092484 15.64387055 130 15 C130 15.33 130 15.66 130 16 C132.64 16.33 135.28 16.66 138 17 C138 17.33 138 17.66 138 18 C132.65890097 19.06323589 127.55508351 19.06384045 122.12695312 18.9609375 C120.41804145 18.9404919 118.70870148 18.96628949 117 19 C116.505 19.495 116.505 19.495 116 20 C113.56730754 20.11396363 111.16416116 20.16386006 108.73046875 20.16796875 C107.98696671 20.17220352 107.24346466 20.17643829 106.47743225 20.18080139 C104.04739855 20.19075971 101.61755066 20.19070948 99.1875 20.1875 C97.94909363 20.18659363 97.94909363 20.18659363 96.68566895 20.18566895 C84.34073742 20.16100435 72.22918812 19.80483552 60 18 C59.10055664 17.87641113 58.20111328 17.75282227 57.27441406 17.62548828 C41.93836999 15.48900798 27.20665608 11.90103463 12.34643555 7.57910156 C9.91737227 6.88019451 9.91737227 6.88019451 7 7 C7 6.34 7 5.68 7 5 C5.8553125 4.814375 5.8553125 4.814375 4.6875 4.625 C2 4 2 4 -1 2 C-0.67 1.34 -0.34 0.68 0 0 Z M149 15 C145.36576791 17.32590854 142.22911669 17.16265833 138 17 C138 16.67 138 16.34 138 16 C141.72430357 15.30710631 145.21083746 14.88855404 149 15 Z " fill="#5C1951" transform="translate(200,546)"/>
<path d="M0 0 C0.495 1.485 0.495 1.485 1 3 C1.804375 3.598125 2.60875 4.19625 3.4375 4.8125 C6.63889878 7.5454014 7.18833958 8.86791056 8 13 C8.6348523 21.04902021 8.7589436 28.52893039 3.37109375 34.9375 C-1.96507807 40.11196964 -7.90706408 42.88349493 -15.390625 43.0546875 C-22.56315582 42.49357114 -28.7402386 39.97544997 -34 35 C-37.42585612 30.71767985 -38.56354727 27.45565919 -39 22 C-38.01 21.67 -37.02 21.34 -36 21 C-35.79246094 21.65226562 -35.58492188 22.30453125 -35.37109375 22.9765625 C-33.15333013 29.26795888 -30.7197777 33.40357365 -25 37 C-18.7662136 39.0779288 -11.36933705 38.96379812 -5.3125 36.5 C-4.549375 36.005 -3.78625 35.51 -3 35 C-2.34 35 -1.68 35 -1 35 C2.96210752 27.68533997 5.7250051 20.35001877 3.4609375 12.015625 C1.72355343 7.54806596 -0.67850529 4.16074735 -5 2 C-5 1.34 -5 0.68 -5 0 C-12.64168335 -1.69356226 -20.29077837 -2.33239354 -27.2890625 1.65234375 C-29.72960335 3.57468757 -31.2543806 5.84040929 -32.90234375 8.44921875 C-34.29164125 10.41203408 -35.73307728 11.24435909 -38 12 C-37.67532773 6.64290753 -34.52574514 3.70115535 -31 0 C-30.49597656 -0.54140625 -29.99195313 -1.0828125 -29.47265625 -1.640625 C-21.67771086 -8.83595921 -7.34778882 -6.56749266 0 0 Z " fill="#6D1E58" transform="translate(315,310)"/>
<path d="M0 0 C0.64066406 0.13277344 1.28132813 0.26554687 1.94140625 0.40234375 C6.94983993 1.42493006 11.93111794 2.33884147 17 3 C17 3.66 17 4.32 17 5 C17.92619141 5.25523437 17.92619141 5.25523437 18.87109375 5.515625 C24.12368333 7.01864911 29.0579964 8.7878095 34.015625 11.08203125 C36.31050549 12.14363935 38.64230313 13.08734315 41 14 C41 14.66 41 15.32 41 16 C42.30130859 16.38091797 42.30130859 16.38091797 43.62890625 16.76953125 C56.43234044 21.44285891 69.51632172 33.77448257 77 45 C77.125 47.6875 77.125 47.6875 77 50 C74.5958227 47.74608378 72.41667215 45.57775675 70.484375 42.8984375 C62.97963526 32.52026137 51.46223961 23.73111981 40 18 C39.505 19.485 39.505 19.485 39 21 C39.99 21.33 40.98 21.66 42 22 C42 22.66 42 23.32 42 24 C42.99 24 43.98 24 45 24 C45 24.66 45 25.32 45 26 C45.61875 26.2475 46.2375 26.495 46.875 26.75 C49.35068687 28.20628639 49.95125002 29.37812506 51 32 C47.24167933 32 46.6301838 31.06392776 43.9375 28.5625 C41.1815464 25.97320177 41.1815464 25.97320177 38 24 C38 23.34 38 22.68 38 22 C37.29101562 21.74347656 36.58203125 21.48695313 35.8515625 21.22265625 C32.76996244 19.90136746 30.18191338 18.27051072 27.375 16.4375 C20.94477722 12.31927822 14.1668081 9.13188773 7.18505859 6.05834961 C6.39695801 5.70264893 5.60885742 5.34694824 4.796875 4.98046875 C3.73484863 4.51483521 3.73484863 4.51483521 2.65136719 4.03979492 C1 3 1 3 0 0 Z " fill="#B72959" transform="translate(392,415)"/>
<path d="M0 0 C6.38118556 0.6740689 12.50009593 1.94264216 18.75 3.375 C26.30372459 5.05603119 33.84810082 6.58820121 41.5 7.75 C42.60746582 7.92281494 42.60746582 7.92281494 43.73730469 8.09912109 C60.71318718 10.55449491 77.8335075 10.11953842 94.9375 10.0625 C97.56705644 10.05747527 100.19661381 10.05291408 102.82617188 10.04882812 C109.21746845 10.03789896 115.6087298 10.02123794 122 10 C122 10.33 122 10.66 122 11 C120.329375 11.185625 120.329375 11.185625 118.625 11.375 C114.96896323 11.6465813 114.96896323 11.6465813 113 14 C110.87767029 14.26069641 110.87767029 14.26069641 108.21264648 14.2746582 C107.21236923 14.28419022 106.21209198 14.29372223 105.1815033 14.30354309 C104.08906815 14.30263168 102.996633 14.30172028 101.87109375 14.30078125 C100.73462906 14.30506638 99.59816437 14.3093515 98.42726135 14.31376648 C96.00188868 14.31952825 93.57649871 14.31999657 91.15112305 14.31567383 C87.53206316 14.31258082 83.91387634 14.33571117 80.29492188 14.36132812 C59.96046758 14.41787672 40.02107277 12.66112206 20.125 8.375 C19.07054687 8.1584375 18.01609375 7.941875 16.9296875 7.71875 C9.57158801 6.19052934 9.57158801 6.19052934 6 5 C6 4.01 6 3.02 6 2 C3.03 1.505 3.03 1.505 0 1 C0 0.67 0 0.34 0 0 Z " fill="#5F1C53" transform="translate(212,571)"/>
<path d="M0 0 C4.09497916 0.62593604 7.36338656 1.96528153 11.0625 3.8125 C12.08472656 4.31394531 13.10695312 4.81539063 14.16015625 5.33203125 C17 7 17 7 19.18359375 9.19921875 C20.92878369 11.35202288 20.92878369 11.35202288 24 11 C26.09375 12.50390625 26.09375 12.50390625 28.5 14.5625 C32.91955352 18.21007911 37.46295755 21.32978931 42.3359375 24.3359375 C44.84442152 25.90282048 47.26232326 27.55821004 49.6875 29.25 C59.50726773 35.82573732 70.88590556 37.42447643 82.4375 35.375 C89.99233305 33.4963559 97.23280317 29.17059026 103 24 C103.99 25.485 103.99 25.485 105 27 C93.91136887 36.11983336 82.34521121 41.28194241 67.890625 40.48046875 C57.2856251 39.17081515 48.61606556 34.03248206 40 28 C38.96746094 27.2884375 37.93492187 26.576875 36.87109375 25.84375 C31.16095439 21.81821114 31.16095439 21.81821114 29 20 C29 19.34 29 18.68 29 18 C28.484375 17.91621094 27.96875 17.83242188 27.4375 17.74609375 C24.00639007 16.69586619 21.07052341 14.87719219 18 13.0625 C13.40203392 10.32892087 13.40203392 10.32892087 8.625 7.93359375 C7 7 7 7 6 4 C2.99992729 2.29144978 2.99992729 2.29144978 0 1 C0 0.67 0 0.34 0 0 Z " fill="#561A54" transform="translate(227,328)"/>
<path d="M0 0 C6.09135615 0.63159223 11.82211939 1.86557821 17.75 3.375 C43.39851999 9.66738848 68.75099561 10.16661966 95 10 C95 10.99 95 11.98 95 13 C63.38586329 16.37867001 28.64226207 14.42614733 -1 2 C-0.67 1.34 -0.34 0.68 0 0 Z " fill="#631C52" transform="translate(228,527)"/>
<path d="M0 0 C0.99 0 1.98 0 3 0 C1.34665525 4.92135951 -1.4272812 8.92337383 -4.3125 13.1875 C-4.84302979 13.97632568 -5.37355957 14.76515137 -5.92016602 15.57788086 C-17.62085302 32.86567593 -30.12010198 49.64257796 -43.2890625 65.83984375 C-45.53643084 68.67727455 -47.62094011 71.62233724 -49.67578125 74.6015625 C-50.33126953 75.29378906 -50.33126953 75.29378906 -51 76 C-51.99 76 -52.98 76 -54 76 C-54 75.01 -54 74.02 -54 73 C-53.34 73 -52.68 73 -52 73 C-51.60167969 72.14329712 -51.60167969 72.14329712 -51.1953125 71.26928711 C-49.93681379 68.8800417 -48.50167226 66.84603769 -46.875 64.69140625 C-46.25584717 63.86850098 -45.63669434 63.0455957 -44.9987793 62.19775391 C-44.33918213 61.32812012 -43.67958496 60.45848633 -43 59.5625 C-41.98450073 58.21551025 -41.98450073 58.21551025 -40.94848633 56.84130859 C-37.22599223 51.91131582 -33.47173367 47.00768746 -29.6875 42.125 C-22.21350918 32.4396962 -15.20957004 22.45559751 -8.48632812 12.23681641 C-7.3326456 10.48544878 -6.16677645 8.74266362 -5 7 C-4.57154785 6.34112793 -4.1430957 5.68225586 -3.70166016 5.00341797 C-2.54439096 3.28156395 -1.27888745 1.63355445 0 0 Z " fill="#721F5B" transform="translate(413,340)"/>
<path d="M0 0 C1.32 0.33 2.64 0.66 4 1 C3.57589844 1.53625 3.15179688 2.0725 2.71484375 2.625 C-11.97847082 22.25914342 -15.93718747 45.92941527 -14 70 C-13.44937904 73.69360642 -12.7742427 77.34707127 -12 81 C-12.66 81 -13.32 81 -14 81 C-14.33 81.99 -14.66 82.98 -15 84 C-22.26171218 60.22653752 -18.85943163 34.01502958 -8 12 C-7.006615 10.99342847 -6.00707163 9.992878 -5 9 C-4.31867549 7.33927151 -3.65257873 5.672233 -3 4 C-2.04175747 2.63634717 -1.05278825 1.29205831 0 0 Z " fill="#83205B" transform="translate(217,128)"/>
<path d="M0 0 C5.68102921 0.03499607 11.04298347 0.58297238 16.625 1.625 C17.30763916 1.75100586 17.99027832 1.87701172 18.69360352 2.00683594 C22.00418157 2.67402619 24.08721386 3.34980924 26.9375 5.25 C26.2775 5.25 25.6175 5.25 24.9375 5.25 C24.6075 5.91 24.2775 6.57 23.9375 7.25 C23.11958984 7.04648926 23.11958984 7.04648926 22.28515625 6.83886719 C-0.55829918 1.42086814 -23.45254329 4.8509283 -44.734375 14.296875 C-47.0625 15.25 -47.0625 15.25 -49.0625 15.25 C-48.7325 13.93 -48.4025 12.61 -48.0625 11.25 C-46.4125 11.25 -44.7625 11.25 -43.0625 11.25 C-42.7325 10.26 -42.4025 9.27 -42.0625 8.25 C-39.75242642 7.23368825 -37.58569607 6.42860718 -35.1875 5.6875 C-34.17018799 5.3632605 -34.17018799 5.3632605 -33.13232422 5.0324707 C-24.37118942 2.31567153 -16.22745464 1.10217815 -7.0625 1.25 C-5.23344418 -0.57905582 -2.46115806 0.03329639 0 0 Z " fill="#A5235B" transform="translate(299.0625,86.75)"/>
<path d="M0 0 C0.99 0 1.98 0 3 0 C3.42993657 19.39675379 3.69128456 38.03414403 -1 57 C-1.38562041 58.62885803 -1.77103964 60.2577637 -2.15625 61.88671875 C-3.05250467 65.60601813 -4.00504021 69.30594718 -5 73 C-6.32 73 -7.64 73 -9 73 C-8.0356675 66.49888199 -6.43699482 60.14329594 -4.90429688 53.7578125 C-1.86873543 40.74044992 -0.67585905 27.93801301 -0.375 14.625 C-0.33667527 13.19529253 -0.2976161 11.76560456 -0.2578125 10.3359375 C-0.1634526 6.89080695 -0.07887576 3.44552407 0 0 Z " fill="#B42B5F" transform="translate(470,174)"/>
<path d="M0 0 C0.66 0.33 1.32 0.66 2 1 C1.50628906 1.48210937 1.01257813 1.96421875 0.50390625 2.4609375 C-0.45708984 3.40839844 -0.45708984 3.40839844 -1.4375 4.375 C-2.39462891 5.31472656 -2.39462891 5.31472656 -3.37109375 6.2734375 C-5.07882176 7.91723061 -5.07882176 7.91723061 -6 10 C-6.66 10 -7.32 10 -8 10 C-8.22558594 10.52078125 -8.45117188 11.0415625 -8.68359375 11.578125 C-10.10940346 14.2012764 -11.8218259 16.50216839 -13.63037109 18.87231445 C-21.71917148 29.47766116 -28.12712843 40.85554099 -33.94921875 52.83984375 C-34.63951382 54.25892617 -35.34999364 55.66839941 -36.08203125 57.06640625 C-38.60579684 61.89653441 -40.40823812 66.7905975 -42 72 C-42.66 72 -43.32 72 -44 72 C-41.7813836 56.25950052 -32.5556892 40.20798703 -24 27 C-23.25556641 25.84371094 -23.25556641 25.84371094 -22.49609375 24.6640625 C-18.93775315 19.36513601 -14.98525763 14.43754434 -10.875 9.5625 C-10.37210449 8.95889648 -9.86920898 8.35529297 -9.35107422 7.73339844 C-6.54505726 4.46294366 -4.00068156 1.82037933 0 0 Z " fill="#841E56" transform="translate(176,68)"/>
<path d="M0 0 C-1.30135218 2.60270437 -2.39942344 2.78901625 -5.05078125 3.91796875 C-5.88915527 4.28188721 -6.7275293 4.64580566 -7.59130859 5.02075195 C-8.48930176 5.40577881 -9.38729492 5.79080566 -10.3125 6.1875 C-19.58399894 10.25580808 -28.239362 14.72727984 -36.625 20.4375 C-39 22 -39 22 -41 22 C-41 22.66 -41 23.32 -41 24 C-42.3984375 25.19140625 -42.3984375 25.19140625 -44.375 26.5625 C-48.76817462 29.71717326 -52.6175365 33.29690404 -56.5078125 37.046875 C-59.25222439 39.19766802 -61.65609287 40.08890646 -65 41 C-59.24679052 33.88418827 -52.60404721 27.15639253 -45 22 C-44.34 22 -43.68 22 -43 22 C-43 21.34 -43 20.68 -43 20 C-36.85676802 15.23696552 -29.64583464 11.60607824 -22.875 7.8125 C-22.13588379 7.39677734 -21.39676758 6.98105469 -20.63525391 6.55273438 C-5.17579148 -2.00353219 -5.17579148 -2.00353219 0 0 Z " fill="#992058" transform="translate(238,29)"/>
<path d="M0 0 C3.96273813 2.83052723 6.39920884 5.37977074 8.8125 9.625 C17.12478507 24.08580522 29.11384779 34.94636367 43.83203125 42.5625 C44.54746094 43.036875 45.26289063 43.51125 46 44 C46 44.99 46 45.98 46 47 C46.94875 47.28875 47.8975 47.5775 48.875 47.875 C52 49 52 49 54 51 C49.14932445 50.40891188 45.48350772 48.32276271 41.3125 45.9375 C40.60134033 45.53192871 39.89018066 45.12635742 39.1574707 44.70849609 C22.74660255 35.15459375 7.56685011 20.65598358 0 3 C0 2.01 0 1.02 0 0 Z " fill="#6C1D57" transform="translate(208,225)"/>
<path d="M0 0 C0.66 0 1.32 0 2 0 C9.95263817 12.44760757 11.75467859 26.01066998 9.1875 40.5 C8.31378694 44.32170892 6.89438125 47.55567046 5 51 C5 51.66 5 52.32 5 53 C1.61059096 56.68847454 -2.12452876 59.84554667 -6 63 C-5.75 61.125 -5.75 61.125 -5 59 C-2.9375 57.75 -2.9375 57.75 -1 57 C-1.495 55.515 -1.495 55.515 -2 54 C-0.95350354 51.62053599 0.13584182 49.39994307 1.375 47.125 C7.10702939 36.4893986 7.65829198 25.58187463 4.1875 13.9375 C3.13934909 10.75288823 2.09642354 8.15228269 0.30078125 5.31640625 C-0.12847656 4.55199219 -0.55773437 3.78757812 -1 3 C-0.67 2.01 -0.34 1.02 0 0 Z " fill="#BE2F5D" transform="translate(451,457)"/>
<path d="M0 0 C0.66 0 1.32 0 2 0 C2.20753906 0.65226562 2.41507812 1.30453125 2.62890625 1.9765625 C4.84666987 8.26795888 7.2802223 12.40357365 13 16 C19.2337864 18.0779288 26.63066295 17.96379812 32.6875 15.5 C33.450625 15.005 34.21375 14.51 35 14 C35.66 14 36.32 14 37 14 C37.268125 13.4225 37.53625 12.845 37.8125 12.25 C39.02929189 9.94449957 40.30333879 7.97943808 42 6 C42.66 6 43.32 6 44 6 C44.33 5.01 44.66 4.02 45 3 C44.77721882 8.45813882 43.56188289 11.44201214 39.79296875 15.42578125 C34.09079894 20.4322615 27.53322608 22.28448739 20 22 C11.80605706 20.63434284 6.88104715 17.5818424 1.6875 11.125 C-0.18878035 7.65040677 -0.7690843 4.92556694 -1 1 C-0.67 0.67 -0.34 0.34 0 0 Z " fill="#631A54" transform="translate(277,331)"/>
<path d="M0 0 C-3.11094024 3.20960812 -6.31084735 6.14986541 -9.75708008 8.99365234 C-20.90188612 18.22609147 -30.91992656 28.13007637 -38.19848633 40.73388672 C-39.06060109 42.20051644 -40.02241117 43.60767652 -41 45 C-41.99 45 -42.98 45 -44 45 C-44.99 47.475 -44.99 47.475 -46 50 C-46.66 50 -47.32 50 -48 50 C-46.497829 45.61661578 -44.14584385 42.08666214 -41.4375 38.375 C-40.99277344 37.76108398 -40.54804688 37.14716797 -40.08984375 36.51464844 C-33.17473642 27.05057754 -25.8700807 17.72988129 -17 10 C-16.34 10 -15.68 10 -15 10 C-15 9.34 -15 8.68 -15 8 C-10.52941176 4 -10.52941176 4 -8 4 C-8 3.34 -8 2.68 -8 2 C-3.61016949 -1.20338983 -3.61016949 -1.20338983 0 0 Z " fill="#7A1C56" transform="translate(386,329)"/>
<path d="M0 0 C1.41508065 4.24524195 -0.24031846 7.27051651 -1.6875 11.3125 C-2.2496336 12.93933265 -2.80950631 14.56694818 -3.3671875 16.1953125 C-3.64530273 17.00516602 -3.92341797 17.81501953 -4.20996094 18.64941406 C-7.87737741 29.56099806 -10.08698656 39.91871597 -10.31640625 51.43359375 C-10.33718735 52.31153091 -10.35796844 53.18946808 -10.37937927 54.0940094 C-10.44431945 56.87509985 -10.50349927 59.65627785 -10.5625 62.4375 C-10.60573814 64.33269104 -10.64935405 66.2278735 -10.69335938 68.12304688 C-10.79994322 72.74861013 -10.90136408 77.37426071 -11 82 C-11.99 82.495 -11.99 82.495 -13 83 C-15.3130846 59.24957774 -13.65720469 35.97918369 -7 13 C-6.01 13 -5.02 13 -4 13 C-3.87882813 12.39671875 -3.75765625 11.7934375 -3.6328125 11.171875 C-3.46523437 10.37265625 -3.29765625 9.5734375 -3.125 8.75 C-2.96257812 7.96109375 -2.80015625 7.1721875 -2.6328125 6.359375 C-2.00849925 4.03168856 -1.15161458 2.10968048 0 0 Z " fill="#6B1F54" transform="translate(138,127)"/>
<path d="M0 0 C0 5.71535445 -5.20476242 10.00683943 -9 14 C-21.18631368 25.90726823 -35.78507687 33.65621169 -51 41 C-50.06254016 37.42669529 -49.36816633 36.22566669 -46.1640625 34.26171875 C-44.99617188 33.74222656 -43.82828125 33.22273437 -42.625 32.6875 C-30.7795084 27.17071496 -17.85927154 19.66615423 -10 9 C-6.86162238 5.70067993 -3.60477558 2.78082688 0 0 Z " fill="#BD2E61" transform="translate(468,521)"/>
<path d="M0 0 C2 2 2 2 2.0625 5.5625 C2.041875 6.696875 2.02125 7.83125 2 9 C2.33 9.33 2.66 9.66 3 10 C4.43261766 27.18153185 3.16154764 44.19945077 -4 60 C-4.99 59.34 -5.98 58.68 -7 58 C-6.81824219 57.42894531 -6.63648438 56.85789063 -6.44921875 56.26953125 C-5.59756403 53.52239886 -4.79517164 50.76403396 -4 48 C-3.73050537 47.07364746 -3.46101074 46.14729492 -3.18334961 45.19287109 C-0.76135759 35.94554052 -0.67693527 27.28103659 -0.875 17.8125 C-0.91016417 15.56656924 -0.94084778 13.32069198 -0.96633911 11.07463074 C-0.99085357 9.06631208 -1.02802198 7.05815955 -1.06591797 5.05004883 C-1 2 -1 2 0 0 Z " fill="#A62358" transform="translate(395,164)"/>
<path d="M0 0 C-3.63423209 2.32590854 -6.77088331 2.16265833 -11 2 C-11 1.67 -11 1.34 -11 1 C-7.27569643 0.30710631 -3.78916254 -0.11144596 0 0 Z M-15.5625 0.9375 C-14.69753906 1.13214844 -13.83257812 1.32679688 -12.94140625 1.52734375 C-12.30074219 1.68332031 -11.66007812 1.83929687 -11 2 C-11 2.33 -11 2.66 -11 3 C-16.34109903 4.06323589 -21.44491649 4.06384045 -26.87304688 3.9609375 C-28.58195855 3.9404919 -30.29129852 3.96628949 -32 4 C-32.33 4.33 -32.66 4.66 -33 5 C-35.6662603 5.08855161 -38.30647114 5.11524673 -40.97265625 5.09765625 C-41.77029892 5.0962413 -42.56794159 5.09482635 -43.38975525 5.09336853 C-45.94737435 5.08775316 -48.50490718 5.07519812 -51.0625 5.0625 C-52.79231645 5.05748698 -54.52213426 5.05292373 -56.25195312 5.04882812 C-60.50133553 5.03777875 -64.75065312 5.02050386 -69 5 C-68.34 4.01 -67.68 3.02 -67 2 C-64.10694638 1.67398445 -61.41778318 1.53492347 -58.51953125 1.5234375 C-57.67331711 1.50785797 -56.82710297 1.49227844 -55.95524597 1.47622681 C-53.24100768 1.42860448 -50.52702472 1.40094643 -47.8125 1.375 C-45.11601426 1.33836886 -42.41966836 1.29752521 -39.72331238 1.25234985 C-38.04493854 1.22539704 -36.36646467 1.20392985 -34.6879425 1.18881226 C-15.57193108 0.93530372 -15.57193108 0.93530372 -15.5625 0.9375 Z " fill="#721B51" transform="translate(349,561)"/>
<path d="M0 0 C0.95519531 0.47566406 0.95519531 0.47566406 1.9296875 0.9609375 C13.96946228 6.74130682 26.51398344 11.28855942 39 16 C38.01 16.495 38.01 16.495 37 17 C37 17.66 37 18.32 37 19 C23.02588416 15.68804739 10.42232963 10.08051841 -2 3 C-1.34 2.01 -0.68 1.02 0 0 Z " fill="#461751" transform="translate(169,553)"/>
<path d="M0 0 C10.4440061 10.15237591 20.34393749 24.03181248 25 38 C24.34 38 23.68 38 23 38 C23.33 39.32 23.66 40.64 24 42 C20.69420703 39.2870392 19.30930131 35.6632219 17.5625 31.875 C13.39211943 23.13840613 7.99017502 15.49144221 2.20166016 7.76074219 C0.9221077 5.88586769 -0.13953681 4.10287493 -1 2 C-0.67 1.34 -0.34 0.68 0 0 Z " fill="#511955" transform="translate(242,355)"/>
<path d="M0 0 C1.28361168 0.00212242 1.28361168 0.00212242 2.59315491 0.00428772 C5.30302556 0.00984635 8.01281093 0.022391 10.72265625 0.03515625 C12.56966026 0.0401766 14.41666557 0.04473857 16.26367188 0.04882812 C20.77086576 0.0598022 25.27799659 0.07703795 29.78515625 0.09765625 C29.78515625 1.08765625 29.78515625 2.07765625 29.78515625 3.09765625 C21.55989331 4.01250054 13.4320218 4.25035223 5.16015625 4.22265625 C3.41605469 4.22845703 3.41605469 4.22845703 1.63671875 4.234375 C-4.73241641 4.2271701 -10.90153725 3.94571235 -17.21484375 3.09765625 C-16.88484375 2.43765625 -16.55484375 1.77765625 -16.21484375 1.09765625 C-10.81681636 -0.02095729 -5.49488631 -0.03471538 0 0 Z " fill="#761E55" transform="translate(293.21484375,536.90234375)"/>
<path d="M0 0 C0 0.33 0 0.66 0 1 C-1.670625 1.185625 -1.670625 1.185625 -3.375 1.375 C-7.03103677 1.6465813 -7.03103677 1.6465813 -9 4 C-11.10073853 4.24050903 -11.10073853 4.24050903 -13.72509766 4.22705078 C-14.70596344 4.22689972 -15.68682922 4.22674866 -16.69741821 4.22659302 C-17.75891083 4.21627045 -18.82040344 4.20594788 -19.9140625 4.1953125 C-20.99883881 4.1924826 -22.08361511 4.18965271 -23.20126343 4.18673706 C-26.67595313 4.17551578 -30.15038782 4.15040762 -33.625 4.125 C-35.97655879 4.11497272 -38.3281216 4.10584643 -40.6796875 4.09765625 C-46.45321244 4.07557011 -52.22658801 4.04207345 -58 4 C-58 3.34 -58 2.68 -58 2 C-51.82951684 1.71134038 -45.65886627 1.42667384 -39.48803711 1.14550781 C-37.39423807 1.04956684 -35.30048641 0.95258548 -33.20678711 0.85449219 C-10.89861344 -0.18928963 -10.89861344 -0.18928963 0 0 Z " fill="#6C1D55" transform="translate(334,581)"/>
<path d="M0 0 C1.79093191 -0.08086147 3.58289628 -0.13912702 5.375 -0.1875 C6.87160156 -0.23970703 6.87160156 -0.23970703 8.3984375 -0.29296875 C9.25695312 -0.19628906 10.11546875 -0.09960938 11 0 C11.66 0.99 12.32 1.98 13 3 C4.7581187 5.1143526 -3.21171772 5.30170787 -11.6875 5.25 C-13.6065918 5.26160156 -13.6065918 5.26160156 -15.56445312 5.2734375 C-21.73162104 5.26062261 -27.19972942 5.19140658 -33 3 C-29.40735167 0.75265072 -26.44857927 0.76799492 -22.265625 0.8046875 C-20.97011719 0.81113281 -19.67460937 0.81757813 -18.33984375 0.82421875 C-16.97655981 0.84092807 -15.61327856 0.85785794 -14.25 0.875 C-12.87110015 0.8850366 -11.49219335 0.89416127 -10.11328125 0.90234375 C-6.74201118 0.92591907 -3.37109364 0.9588273 0 1 C0 0.67 0 0.34 0 0 Z " fill="#7B2058" transform="translate(309,278)"/>
<path d="M0 0 C0.33 0 0.66 0 1 0 C1.02708567 1.60407328 1.04643483 3.2082785 1.0625 4.8125 C1.07410156 5.70582031 1.08570313 6.59914062 1.09765625 7.51953125 C1 10 1 10 0 13 C-0.08630926 14.45781722 -0.11770981 15.91927474 -0.11352539 17.37963867 C-0.11344986 18.26032516 -0.11337433 19.14101166 -0.11329651 20.04838562 C-0.10813522 20.99534805 -0.10297394 21.94231049 -0.09765625 22.91796875 C-0.0962413 23.89034988 -0.09482635 24.86273102 -0.09336853 25.86457825 C-0.08776817 28.97225004 -0.07521562 32.07984996 -0.0625 35.1875 C-0.05748505 37.29361875 -0.05292213 39.39973863 -0.04882812 41.50585938 C-0.03779862 46.67060064 -0.02053375 51.83528813 0 57 C0.66 57 1.32 57 2 57 C1.67 58.98 1.34 60.96 1 63 C1.66 63 2.32 63 3 63 C2.938125 63.928125 2.87625 64.85625 2.8125 65.8125 C2.78687968 72.07666708 5.03829847 78.11489541 7 84 C7.03874921 85.66621616 7.0450286 87.33394172 7 89 C-2.63351464 74.54972804 -2.49583979 51.42634326 -2.33618164 34.70874023 C-2.31229192 32.03924897 -2.31569332 29.37074537 -2.32226562 26.70117188 C-2.30620974 17.62203939 -1.97924011 8.90827992 0 0 Z " fill="#571550" transform="translate(129,157)"/>
<path d="M0 0 C0.99 0 1.98 0 3 0 C1.28476062 3.96649106 -1.33458497 7.20289488 -4 10.5625 C-4.7271521 11.48144043 -4.7271521 11.48144043 -5.46899414 12.41894531 C-18.52091702 28.75345117 -18.52091702 28.75345117 -24 31 C-23.41435705 27.39789476 -22.05734467 25.67782007 -19.5625 23.0625 C-15.48528234 18.65350152 -11.87293935 14.00364025 -8.32641602 9.16625977 C-7.26256634 7.74277504 -6.13621702 6.36641713 -5 5 C-4.34 5 -3.68 5 -3 5 C-2.690625 4.360625 -2.38125 3.72125 -2.0625 3.0625 C-1 1 -1 1 0 0 Z " fill="#581A57" transform="translate(358,415)"/>
<path d="M0 0 C-0.969375 0.28875 -1.93875 0.5775 -2.9375 0.875 C-6.10664203 1.64214682 -6.10664203 1.64214682 -7 4 C-9.76271944 4.96471176 -12.51294024 5.84397803 -15.3125 6.6875 C-22.50408234 8.93879658 -28.4867144 11.63922567 -34.8125 15.77734375 C-35.534375 16.18082031 -36.25625 16.58429688 -37 17 C-37.66 16.67 -38.32 16.34 -39 16 C-36.99197561 11.19472769 -33.54530262 10.03087989 -29 8 C-27.77216797 7.39478516 -27.77216797 7.39478516 -26.51953125 6.77734375 C-7.0025548 -2.64961533 -7.0025548 -2.64961533 0 0 Z " fill="#7D1D59" transform="translate(390,323)"/>
<path d="M0 0 C0.66 0.99 1.32 1.98 2 3 C-10.08127783 12.93623463 -21.45696894 17.06297325 -37 16 C-37.33 15.34 -37.66 14.68 -38 14 C-33.71 14 -29.42 14 -25 14 C-25 13.34 -25 12.68 -25 12 C-23.741875 11.79375 -22.48375 11.5875 -21.1875 11.375 C-13.31872983 9.63467168 -5.98055359 5.36187563 0 0 Z " fill="#651C58" transform="translate(330,352)"/>
<path d="M0 0 C0.66 0.33 1.32 0.66 2 1 C1.98952637 1.66942627 1.97905273 2.33885254 1.96826172 3.02856445 C1.92615099 6.12316993 1.90050147 9.21771478 1.875 12.3125 C1.85824219 13.36501953 1.84148437 14.41753906 1.82421875 15.50195312 C1.78079804 22.55781803 2.4776333 29.10987473 4 36 C3.34 36 2.68 36 2 36 C1.67 36.99 1.34 37.98 1 39 C-2.72214241 26.41561377 -2.31238552 13.99844141 -2 1 C-1.34 0.67 -0.68 0.34 0 0 Z " fill="#76205C" transform="translate(201,173)"/>
<path d="M0 0 C2.92126279 8.76378836 -6.28757597 22.78261197 -10 31 C-10.66 30.67 -11.32 30.34 -12 30 C-11.46969697 23.35725673 -9.11542134 17.73762856 -6.5625 11.625 C-6.15451172 10.61566406 -5.74652344 9.60632813 -5.32617188 8.56640625 C-2.25814699 1.1290735 -2.25814699 1.1290735 0 0 Z " fill="#A32760" transform="translate(462,247)"/>
<path d="M0 0 C5.28139679 1.48539285 9.28054101 5.08672304 13 9 C13 9.66 13 10.32 13 11 C13.804375 11.2475 14.60875 11.495 15.4375 11.75 C16.283125 12.1625 17.12875 12.575 18 13 C18.3721042 14.32303717 18.70630173 15.65737935 19 17 C19.59167969 17.27585937 20.18335938 17.55171875 20.79296875 17.8359375 C23.58692782 19.30956547 24.8746014 21.10042497 26.75 23.625 C27.36359375 24.44226563 27.9771875 25.25953125 28.609375 26.1015625 C29.06828125 26.72804687 29.5271875 27.35453125 30 28 C29.67 28.66 29.34 29.32 29 30 C25.63582898 28.87860966 25.2516075 28.3003157 23.3125 25.5 C17.9376378 18.09963554 12.28097241 12.01741322 4.921875 6.57421875 C2.61285576 4.68288795 1.23322871 2.71310316 0 0 Z " fill="#B6285F" transform="translate(353,104)"/>
<path d="M0 0 C0.99 0.33 1.98 0.66 3 1 C2.34 1 1.68 1 1 1 C1 1.66 1 2.32 1 3 C1.99 3.33 2.98 3.66 4 4 C0.64711088 4.81783278 -2.70751977 5.62829214 -6.0625 6.4375 C-7.00544922 6.66759766 -7.94839844 6.89769531 -8.91992188 7.13476562 C-13.93793368 8.34118658 -18.87515501 9.38160678 -24 10 C-23.25 8.0625 -23.25 8.0625 -22 6 C-20.375 5.3125 -20.375 5.3125 -18 5 C-16.99066406 4.86464844 -16.99066406 4.86464844 -15.9609375 4.7265625 C-13.97614459 4.46706661 -11.98819947 4.2319566 -10 4 C-10 3.34 -10 2.68 -10 2 C-3.375 0.875 -3.375 0.875 0 2 C0 1.34 0 0.68 0 0 Z " fill="#B1255B" transform="translate(269,17)"/>
<path d="M0 0 C0.33 0.66 0.66 1.32 1 2 C0.20239258 4.09692383 0.20239258 4.09692383 -1.10546875 6.70703125 C-1.58918945 7.67705078 -2.07291016 8.64707031 -2.57128906 9.64648438 C-3.10463867 10.69126953 -3.63798828 11.73605469 -4.1875 12.8125 C-4.9933252 14.40868164 -4.9933252 14.40868164 -5.81542969 16.03710938 C-11.18490486 26.56390149 -17.00373951 36.81985358 -23 47 C-23.66 46.34 -24.32 45.68 -25 45 C-23.66732431 42.62462898 -22.33390289 40.24968183 -21 37.875 C-20.59281738 37.14941895 -20.18563477 36.42383789 -19.76611328 35.67626953 C-17.81830055 32.21071991 -15.86327054 28.75051271 -13.8671875 25.3125 C-9.75161308 18.21111668 -5.94082129 11.04255122 -2.34765625 3.66796875 C-1 1 -1 1 0 0 Z " fill="#992962" transform="translate(450,278)"/>
<path d="M0 0 C0 0.66 0 1.32 0 2 C7.26 2 14.52 2 22 2 C22 2.33 22 2.66 22 3 C5.87591515 3.25469393 -10.15406366 3.40871886 -26 0 C-26 -0.33 -26 -0.66 -26 -1 C-18.36800735 -2.56553695 -7.19170495 -3.59585248 0 0 Z " fill="#6F1951" transform="translate(288,519)"/>
<path d="M0 0 C-6.30917664 7.53968981 -20.88327402 10.42550927 -30 13 C-29 10 -29 10 -27 8 C-24.27972217 6.95997898 -21.57120298 5.98828621 -18.8125 5.0625 C-17.31820276 4.55576087 -15.82470174 4.04666735 -14.33203125 3.53515625 C-13.6045166 3.28652832 -12.87700195 3.03790039 -12.12744141 2.78173828 C-10.07614925 2.0279814 -8.1193403 1.16311486 -6.13671875 0.24609375 C-3 -1 -3 -1 0 0 Z " fill="#9D2258" transform="translate(418,560)"/>
<path d="M0 0 C-1.3444855 2.688971 -2.70201023 2.93639701 -5.4375 4.12890625 C-6.33210938 4.52400391 -7.22671875 4.91910156 -8.1484375 5.32617188 C-9.08945313 5.73416016 -10.03046875 6.14214844 -11 6.5625 C-12.85500758 7.37438345 -14.70921918 8.18808883 -16.5625 9.00390625 C-17.38878906 9.36299072 -18.21507812 9.7220752 -19.06640625 10.09204102 C-20.96160265 10.84843483 -20.96160265 10.84843483 -22 12 C-23.66617115 12.04063832 -25.33388095 12.042721 -27 12 C-27 11.34 -27 10.68 -27 10 C-24.2730819 8.53743341 -21.5430812 7.08071459 -18.8125 5.625 C-18.04357422 5.2125 -17.27464844 4.8 -16.48242188 4.375 C-5.37565007 -1.53590002 -5.37565007 -1.53590002 0 0 Z " fill="#A6245B" transform="translate(238,29)"/>
<path d="M0 0 C0.66 0.33 1.32 0.66 2 1 C1.67 1.33 1.34 1.66 1 2 C4.63 1.67 8.26 1.34 12 1 C9.642135 3.357865 8.53454574 3.47680308 5.30859375 4.0703125 C4.36306641 4.24433594 3.41753906 4.41835938 2.44335938 4.59765625 C0.95545898 4.85869141 0.95545898 4.85869141 -0.5625 5.125 C-2.00979492 5.39763672 -2.00979492 5.39763672 -3.48632812 5.67578125 C-9.42112893 6.74172116 -14.97230243 7.18661602 -21 7 C-21 6.01 -21 5.02 -21 4 C-19.88625 3.855625 -18.7725 3.71125 -17.625 3.5625 C-14.17857953 3.21627965 -14.17857953 3.21627965 -12 2 C-9.14792222 1.68744353 -6.29503146 1.48962518 -3.43359375 1.28125 C-1.05456695 1.26165078 -1.05456695 1.26165078 0 0 Z " fill="#911E56" transform="translate(337,514)"/>
<path d="M0 0 C7.47244451 0.73790389 14.68579818 2.39807498 22 4.0625 C23.25167969 4.34416016 24.50335938 4.62582031 25.79296875 4.91601562 C28.86275765 5.60730396 31.93171892 6.30205525 35 7 C35 7.33 35 7.66 35 8 C29.555 7.505 29.555 7.505 24 7 C23.67 7.66 23.34 8.32 23 9 C14.585 7.02 14.585 7.02 6 5 C6 4.01 6 3.02 6 2 C3.03 1.505 3.03 1.505 0 1 C0 0.67 0 0.34 0 0 Z " fill="#521850" transform="translate(212,571)"/>
<path d="M0 0 C0 3 0 3 -1.21484375 4.33203125 C-1.78332031 4.82058594 -2.35179687 5.30914062 -2.9375 5.8125 C-7.16218216 9.78765918 -9.97067923 14.41254042 -12.89038086 19.3762207 C-13.85217939 20.96519516 -14.91902749 22.48957136 -16 24 C-16.99 24 -17.98 24 -19 24 C-19.99 26.475 -19.99 26.475 -21 29 C-21.66 29 -22.32 29 -23 29 C-21.4902911 24.65040624 -19.21345591 21.03941405 -16.5625 17.3125 C-16.13018066 16.70325684 -15.69786133 16.09401367 -15.25244141 15.46630859 C-10.85704871 9.47744854 -5.71932798 4.71898925 0 0 Z " fill="#6C1A54" transform="translate(361,350)"/>
<path d="M0 0 C0.66 0.33 1.32 0.66 2 1 C-1.8841038 5.28616923 -5.933604 7.94398113 -11 10.6875 C-11.69867188 11.07744141 -12.39734375 11.46738281 -13.1171875 11.86914062 C-16.67079743 13.83033101 -20.1777512 15.60398335 -24 17 C-23.05634637 13.32604187 -22.30630141 12.18973001 -19.0234375 10.15625 C-17.81442573 9.5887139 -16.59777846 9.03723322 -15.375 8.5 C-11.17293051 6.54634967 -7.11870451 4.56961923 -3.25 2 C-1.64125 1.01 -1.64125 1.01 0 0 Z " fill="#AF285C" transform="translate(441,545)"/>
<path d="M0 0 C0.99 0 1.98 0 3 0 C1.29104787 5.00692993 -1.4830746 9.25736382 -4.3125 13.6875 C-4.78623047 14.45900391 -5.25996094 15.23050781 -5.74804688 16.02539062 C-10.14479195 22.91222115 -10.14479195 22.91222115 -15 24 C-12.74235823 17.67860306 -8.77116514 12.49719842 -5 7 C-4.24203125 5.84371094 -4.24203125 5.84371094 -3.46875 4.6640625 C-2.1875 2.75 -2.1875 2.75 0 0 Z " fill="#82205B" transform="translate(413,340)"/>
<path d="M0 0 C-0.33 0.99 -0.66 1.98 -1 3 C-3.41878928 4.15924901 -5.74328595 5.13959492 -8.25 6.0625 C-9.25353516 6.44631836 -9.25353516 6.44631836 -10.27734375 6.83789062 C-12.18217044 7.56576644 -14.09100472 8.28312834 -16 9 C-16.90234375 9.39058594 -17.8046875 9.78117188 -18.734375 10.18359375 C-21 11 -21 11 -25 11 C-24 8 -24 8 -21.89868164 6.81738281 C-20.99496826 6.44967773 -20.09125488 6.08197266 -19.16015625 5.703125 C-18.17982422 5.30222656 -17.19949219 4.90132812 -16.18945312 4.48828125 C-14.64161133 3.87533203 -14.64161133 3.87533203 -13.0625 3.25 C-12.03447266 2.82589844 -11.00644531 2.40179687 -9.94726562 1.96484375 C-2.26475032 -1.13237516 -2.26475032 -1.13237516 0 0 Z " fill="#A92157" transform="translate(409,542)"/>
<path d="M0 0 C0.33 0 0.66 0 1 0 C1.20364151 5.49832076 0.61823911 10.24367553 -0.55859375 15.609375 C-1.139942 18.75791597 -1.06261571 21.8065986 -1 25 C-1.165 25.804375 -1.33 26.60875 -1.5 27.4375 C-1.96597155 29.82560419 -2.00270832 31.77044479 -1.9375 34.1875 C-2 38 -2 38 -4 40 C-4.09928082 32.24506486 -4.06059488 24.68931285 -3 17 C-3.66 17 -4.32 17 -5 17 C-4.67 14.69 -4.34 12.38 -4 10 C-3.01 10 -2.02 10 -1 10 C-0.67 6.7 -0.34 3.4 0 0 Z " fill="#45104C" transform="translate(322,424)"/>
<path d="M0 0 C-0.99 0.33 -1.98 0.66 -3 1 C-3.33 1.66 -3.66 2.32 -4 3 C-6.84343815 4.17236264 -9.84702294 4.88123939 -12.8125 5.6875 C-13.63298828 5.92533203 -14.45347656 6.16316406 -15.29882812 6.40820312 C-16.09353516 6.62798828 -16.88824219 6.84777344 -17.70703125 7.07421875 C-18.4338208 7.27619873 -19.16061035 7.47817871 -19.90942383 7.6862793 C-22.23446201 8.03518436 -23.77918512 7.7154324 -26 7 C-25.01 6.67 -24.02 6.34 -23 6 C-23 5.34 -23 4.68 -23 4 C-19.92090233 3.13003414 -16.83621369 2.28184148 -13.75 1.4375 C-12.87730469 1.19064453 -12.00460937 0.94378906 -11.10546875 0.68945312 C-9.83896484 0.34624023 -9.83896484 0.34624023 -8.546875 -0.00390625 C-7.77182617 -0.21861572 -6.99677734 -0.4333252 -6.19824219 -0.65454102 C-3.80975982 -1.0298967 -2.279036 -0.74681558 0 0 Z " fill="#8E1F56" transform="translate(392,570)"/>
<path d="M0 0 C2 1 2 1 3 3 C-4.3549914 5.44408524 -11.2501365 7.47458553 -19 8 C-19 7.01 -19 6.02 -19 5 C-14.48074609 3.33501172 -9.98910255 2.34206053 -5.26953125 1.46484375 C-2.84996667 1.01634421 -2.84996667 1.01634421 0 0 Z " fill="#961C54" transform="translate(380,551)"/>
<path d="M0 0 C0.99 0.33 1.98 0.66 3 1 C-2.93681782 7.3122138 -10.44418552 12.2888371 -19 14 C-17.64261207 10.73565176 -16.44746491 9.33897734 -13.33984375 7.67578125 C-12.62892578 7.28712891 -11.91800781 6.89847656 -11.18554688 6.49804688 C-10.44369141 6.10681641 -9.70183594 5.71558594 -8.9375 5.3125 C-7.46683475 4.51806112 -5.99675109 3.72254436 -4.52734375 2.92578125 C-3.54882446 2.40624878 -3.54882446 2.40624878 -2.55053711 1.8762207 C-1.00468852 1.0939298 -1.00468852 1.0939298 0 0 Z " fill="#B5265B" transform="translate(429,529)"/>
<path d="M0 0 C-3.47109168 2.31406112 -4.94878113 2.08619615 -9 2 C-9.99 2.495 -9.99 2.495 -11 3 C-17.65392174 3.92131224 -24.29322507 4.10994713 -31 4 C-30.34 3.01 -29.68 2.02 -29 1 C-25.8125 0.5234375 -25.8125 0.5234375 -22 0.375 C-17.33515223 0.35106609 -17.33515223 0.35106609 -13 -1 C-11.55001463 -1.27712076 -10.08929996 -1.50020582 -8.625 -1.6875 C-7.46871094 -1.84798828 -7.46871094 -1.84798828 -6.2890625 -2.01171875 C-3.66630726 -1.99829168 -2.23032766 -1.32903087 0 0 Z " fill="#8D1E52" transform="translate(360,559)"/>
<path d="M0 0 C-2.64738916 1.4606285 -3.89448334 2 -7 2 C-7.33 2.99 -7.66 3.98 -8 5 C-8.66 5 -9.32 5 -10 5 C-10.33 5.66 -10.66 6.32 -11 7 C-12.42655995 7.8866269 -13.89137542 8.71257466 -15.375 9.5 C-18.02330166 10.91472792 -20.49604549 12.330697 -23 14 C-21.25 8.25 -21.25 8.25 -19 6 C-17.68 6 -16.36 6 -15 6 C-15 5.34 -15 4.68 -15 4 C-13.06767179 3.13419713 -11.12892806 2.28270059 -9.1875 1.4375 C-8.10855469 0.96183594 -7.02960938 0.48617188 -5.91796875 -0.00390625 C-3 -1 -3 -1 0 0 Z " fill="#511453" transform="translate(187,424)"/>
<path d="M0 0 C0 0.99 0 1.98 0 3 C-13.86 2.505 -13.86 2.505 -28 2 C-28 1.34 -28 0.68 -28 0 C-23.70868391 -0.19619224 -19.41693898 -0.38048583 -15.125 -0.5625 C-13.90167969 -0.61857422 -12.67835938 -0.67464844 -11.41796875 -0.73242188 C-9.66806641 -0.80493164 -9.66806641 -0.80493164 -7.8828125 -0.87890625 C-6.80402832 -0.9260376 -5.72524414 -0.97316895 -4.61376953 -1.02172852 C-2 -1 -2 -1 0 0 Z " fill="#7D2057" transform="translate(316,519)"/>
<path d="M0 0 C2 1 2 1 2 1 Z M0 1 C0.33 1.99 0.66 2.98 1 4 C-8.405 7.96 -8.405 7.96 -18 12 C-18.33 11.34 -18.66 10.68 -19 10 C-17.48806307 6.97612614 -15.19928629 7.06642876 -12 6 C-9.36459455 4.72063778 -6.76641156 3.38360364 -4.171875 2.0234375 C-2 1 -2 1 0 1 Z " fill="#A7245B" transform="translate(383,519)"/>
<path d="M0 0 C3.7812722 3.60939619 5.27664901 6.53679754 6.125 11.6875 C6.29257812 12.68136719 6.46015625 13.67523438 6.6328125 14.69921875 C6.75398438 15.45847656 6.87515625 16.21773438 7 17 C6.34 17 5.68 17 5 17 C5.33 19.64 5.66 22.28 6 25 C3.6952522 21.09646319 2.87669922 16.87037658 1.875 12.5 C1.69324219 11.74074219 1.51148438 10.98148437 1.32421875 10.19921875 C0.49012744 6.61827036 0 3.72626421 0 0 Z " fill="#49124F" transform="translate(271,411)"/>
<path d="M0 0 C0.33 0 0.66 0 1 0 C1.23668569 7.03482474 0.7879537 13.1834265 -1 20 C-1.99 20 -2.98 20 -4 20 C-3.71749338 17.41536498 -3.4243774 14.83268865 -3.125 12.25 C-3.04636719 11.52039063 -2.96773438 10.79078125 -2.88671875 10.0390625 C-2.44863824 6.33222743 -2.0013785 3.19547828 0 0 Z " fill="#BF3161" transform="translate(478,486)"/>
<path d="M0 0 C2 2 2 2 2.22705078 4.33837891 C2.21657715 5.29147949 2.20610352 6.24458008 2.1953125 7.2265625 C2.18886719 8.2578125 2.18242187 9.2890625 2.17578125 10.3515625 C2.15902344 11.43179688 2.14226562 12.51203125 2.125 13.625 C2.11597656 14.71296875 2.10695313 15.8009375 2.09765625 16.921875 C2.07403409 19.61480152 2.04109556 22.30729255 2 25 C1.34 25 0.68 25 0 25 C-0.19628414 21.20873402 -0.38053896 17.41697828 -0.5625 13.625 C-0.61857422 12.54476562 -0.67464844 11.46453125 -0.73242188 10.3515625 C-0.78076172 9.3203125 -0.82910156 8.2890625 -0.87890625 7.2265625 C-0.9260376 6.27346191 -0.97316895 5.32036133 -1.02172852 4.33837891 C-1 2 -1 2 0 0 Z " fill="#B2275E" transform="translate(395,164)"/>
<path d="M0 0 C0.33 0 0.66 0 1 0 C1.23302133 5.7090225 1.17878722 10.66197132 -1 16 C-3.078125 17.19140625 -3.078125 17.19140625 -5 18 C-4.68806536 16.27073126 -4.37542638 14.54158956 -4.0625 12.8125 C-3.88847656 11.84957031 -3.71445312 10.88664062 -3.53515625 9.89453125 C-3.0476265 7.25760028 -2.53328895 4.6280095 -2 2 C-1.34 2 -0.68 2 0 2 C0 1.34 0 0.68 0 0 Z " fill="#B42C61" transform="translate(414,479)"/>
<path d="M0 0 C0.33 0.99 0.66 1.98 1 3 C8.26 3 15.52 3 23 3 C23 3.33 23 3.66 23 4 C18.81255925 4.05840224 14.62522435 4.09373166 10.4375 4.125 C9.25607422 4.14175781 8.07464844 4.15851563 6.85742188 4.17578125 C0.84603241 4.2094585 -4.34183122 4.11038894 -10 2 C-6.5980513 -0.09350689 -3.94727588 -0.17942163 0 0 Z " fill="#701953" transform="translate(286,279)"/>
<path d="M0 0 C2.25145318 2.86910848 4.10715572 5.77606385 5.8125 9 C6.50279297 10.2684375 6.50279297 10.2684375 7.20703125 11.5625 C8 14 8 14 7.13671875 16.3125 C6.76160156 16.869375 6.38648438 17.42625 6 18 C4.80036357 15.56781941 3.61515562 13.13029422 2.4375 10.6875 C2.09525391 9.99720703 1.75300781 9.30691406 1.40039062 8.59570312 C-1.11328125 3.33984375 -1.11328125 3.33984375 0 0 Z " fill="#B6285E" transform="translate(384,135)"/>
<path d="M0 0 C0.85271484 0.30744141 0.85271484 0.30744141 1.72265625 0.62109375 C5.50644202 1.94131283 8.95122589 2.99303227 12.9375 3.5625 C16 4 16 4 18 6 C17.34 6 16.68 6 16 6 C16 6.66 16 7.32 16 8 C3.75165856 4.97545334 3.75165856 4.97545334 0 2 C0 1.34 0 0.68 0 0 Z " fill="#511D55" transform="translate(190,564)"/>
<path d="M0 0 C1.60463449 0.31008884 3.20869231 0.62316287 4.8125 0.9375 C5.70582031 1.11152344 6.59914063 1.28554688 7.51953125 1.46484375 C10 2 10 2 13 3 C12.67 4.32 12.34 5.64 12 7 C10.56068883 6.54738642 9.12361001 6.08767021 7.6875 5.625 C6.88699219 5.36976563 6.08648437 5.11453125 5.26171875 4.8515625 C3 4 3 4 0 2 C0 1.34 0 0.68 0 0 Z " fill="#A62861" transform="translate(392,415)"/>
<path d="M0 0 C0.99 0 1.98 0 3 0 C3.66 3.63 4.32 7.26 5 11 C4.34 11 3.68 11 3 11 C2.67 11.99 2.34 12.98 2 14 C0.66416101 9.15758367 -0.25328119 5.06562383 0 0 Z " fill="#6D1D57" transform="translate(200,198)"/>
<path d="M0 0 C-5.32699938 3.66231207 -10.59932742 5 -17 5 C-16.67 4.01 -16.34 3.02 -16 2 C-14.989375 1.87625 -13.97875 1.7525 -12.9375 1.625 C-8.98298715 1.08419641 -8.98298715 1.08419641 -5.1875 -0.125 C-2 -1 -2 -1 0 0 Z " fill="#A12355" transform="translate(382,552)"/>
<path d="M0 0 C-1.37020379 1.96966795 -2.54992888 2.88185633 -4.875 3.4921875 C-10.49175412 4.33883058 -10.49175412 4.33883058 -14 2 C-12.23225581 1.46877637 -10.46065917 0.95035927 -8.6875 0.4375 C-7.70136719 0.14746094 -6.71523438 -0.14257812 -5.69921875 -0.44140625 C-3 -1 -3 -1 0 0 Z " fill="#941E56" transform="translate(358,531)"/>
<path d="M0 0 C0.66 0 1.32 0 2 0 C0.82701739 3.97009499 -0.48307689 6.74897431 -3 10 C-3.71162443 11.64797236 -4.39031953 13.31165408 -5 15 C-6 12 -6 12 -4.78515625 9.08203125 C-4.21667969 8.00308594 -3.64820312 6.92414063 -3.0625 5.8125 C-2.49660156 4.72582031 -1.93070313 3.63914062 -1.34765625 2.51953125 C-0.90292969 1.68808594 -0.45820313 0.85664063 0 0 Z " fill="#49165C" transform="translate(130,464)"/>
<path d="M0 0 C1.32 0 2.64 0 4 0 C3.9375 1.75 3.9375 1.75 3 4 C0.75835678 5.59501537 -1.53566643 6.74543018 -4 8 C-2.25 2.25 -2.25 2.25 0 0 Z " fill="#5A1B61" transform="translate(168,430)"/>
<path d="M0 0 C2.09715785 3.14573677 2.52004559 5.01456251 3.125 8.6875 C3.29257812 9.68136719 3.46015625 10.67523438 3.6328125 11.69921875 C3.75398438 12.45847656 3.87515625 13.21773438 4 14 C3.34 14 2.68 14 2 14 C1.46658816 12.42085985 0.94874237 10.83645613 0.4375 9.25 C0.14746094 8.36828125 -0.14257812 7.4865625 -0.44140625 6.578125 C-1.01697435 3.92165684 -0.89248371 2.52968894 0 0 Z " fill="#551F59" transform="translate(274,414)"/>
<path d="M0 0 C0.33 0.66 0.66 1.32 1 2 C-0.21484375 4.3828125 -0.21484375 4.3828125 -1.9375 7.125 C-2.50339844 8.03507812 -3.06929687 8.94515625 -3.65234375 9.8828125 C-4.09707031 10.58148438 -4.54179687 11.28015625 -5 12 C-5.66 10.68 -6.32 9.36 -7 8 C-6.21625 7.236875 -5.4325 6.47375 -4.625 5.6875 C-1.92742283 3.09108195 -1.92742283 3.09108195 0 0 Z " fill="#7C1952" transform="translate(153,97)"/>
<path d="M0 0 C2.59482129 2.59482129 2.69990302 4.39883625 3 8 C2.34 8.66 1.68 9.32 1 10 C-1.125 3.375 -1.125 3.375 0 0 Z " fill="#B6275D" transform="translate(392,153)"/>
<path d="" fill="#993366" transform="translate(0,0)"/>
<path d="" fill="#AA0055" transform="translate(0,0)"/>
<path d="" fill="#000000" transform="translate(0,0)"/>
</svg>
